<?xml version="1.0"?>
<svg xmlns="http://www.w3.org/2000/svg" viewBox="0 0 64 64" width="512px" height="512px" class=""><g><g id="configuration"><path d="M16,28h8a1,1,0,0,0,1-1V22H23v4H16Z" data-original="#000000" class="active-path" data-old_color="#000000" fill="#FFB229"/><rect x="31" y="22" width="2" height="8" data-original="#000000" class="active-path" data-old_color="#000000" fill="#FFB229"/><path d="M39,22v5a1,1,0,0,0,1,1h8V26H41V22Z" data-original="#000000" class="active-path" data-old_color="#000000" fill="#FFB229"/><path d="M59,30a3,3,0,0,0-2.816,2H52V15a1,1,0,0,0-1-1H43v2h7V33a1,1,0,0,0,1,1h5.184A2.995,2.995,0,1,0,59,30Zm0,4a1,1,0,1,1,1-1A1,1,0,0,1,59,34Z" data-original="#000000" class="active-path" data-old_color="#000000" fill="#FFB229"/><path d="M13,34a1,1,0,0,0,1-1V16h7V14H13a1,1,0,0,0-1,1V32H7.816a3,3,0,1,0,0,2ZM5,34a1,1,0,1,1,1-1A1,1,0,0,1,5,34Z" data-original="#000000" class="active-path" data-old_color="#000000" fill="#FFB229"/><path d="M59,10a3,3,0,1,0-2.816-4H43V8H56.184A3,3,0,0,0,59,10Zm0-4a1,1,0,1,1-1,1A1,1,0,0,1,59,6Z" data-original="#000000" class="active-path" data-old_color="#000000" fill="#FFB229"/><path d="M5,10A3,3,0,0,0,7.816,8H21V6H7.816A2.995,2.995,0,1,0,5,10ZM5,6A1,1,0,1,1,4,7,1,1,0,0,1,5,6Z" data-original="#000000" class="active-path" data-old_color="#000000" fill="#FFB229"/><rect x="25" y="51" width="14" height="2" data-original="#000000" class="active-path" data-old_color="#000000" fill="#FFB229"/><path d="M55,46V44H53a1.033,1.033,0,0,0-.71.29l-1.59,1.6-2.77-8.75A4.962,4.962,0,0,0,43.29,34H20.71a4.993,4.993,0,0,0-4.67,3.21L13.3,45.89l-1.59-1.6A1.033,1.033,0,0,0,11,44H9v2h1.59l1,1-1.3,1.29A1.033,1.033,0,0,0,10,49v8a1,1,0,0,0,1,1h1v1a3.009,3.009,0,0,0,3,3h2a3.009,3.009,0,0,0,3-3V58H44v1a3.009,3.009,0,0,0,3,3h2a3.009,3.009,0,0,0,3-3V58h1a1,1,0,0,0,1-1V49a1.033,1.033,0,0,0-.29-.71L52.41,47l1-1ZM17.92,37.89A2.985,2.985,0,0,1,20.71,36H43.29a2.956,2.956,0,0,1,2.76,1.82L48.64,46H45V43a3.009,3.009,0,0,0-3-3H38a3.009,3.009,0,0,0-3,3v3H29V43a3.009,3.009,0,0,0-3-3H22a3.009,3.009,0,0,0-3,3v3H15.36ZM43,43v3H37V43a1,1,0,0,1,1-1h4A1,1,0,0,1,43,43ZM27,43v3H21V43a1,1,0,0,1,1-1h4A1,1,0,0,1,27,43ZM52,56H51a1,1,0,0,0-1,1v2a1,1,0,0,1-1,1H47a1,1,0,0,1-1-1V57a1,1,0,0,0-1-1H19a1,1,0,0,0-1,1v2a1,1,0,0,1-1,1H15a1,1,0,0,1-1-1V57a1,1,0,0,0-1-1H12V49.41L13.41,48H50.59L52,49.41Z" data-original="#000000" class="active-path" data-old_color="#000000" fill="#FFB229"/><path d="M50,49H44a3.009,3.009,0,0,0-3,3v2a1,1,0,0,0,1,1h6a3.009,3.009,0,0,0,3-3V50A1,1,0,0,0,50,49Zm-1,3a1,1,0,0,1-1,1H43V52a1,1,0,0,1,1-1h5Z" data-original="#000000" class="active-path" data-old_color="#000000" fill="#FFB229"/><path d="M20,49H14a1,1,0,0,0-1,1v2a3.009,3.009,0,0,0,3,3h6a1,1,0,0,0,1-1V52A3.009,3.009,0,0,0,20,49Zm1,4H16a1,1,0,0,1-1-1V51h5a1,1,0,0,1,1,1Z" data-original="#000000" class="active-path" data-old_color="#000000" fill="#FFB229"/><path d="M32,15a4,4,0,1,0-4-4A4,4,0,0,0,32,15Zm0-6a2,2,0,1,1-2,2A2,2,0,0,1,32,9Z" data-original="#000000" class="active-path" data-old_color="#000000" fill="#FFB229"/><path d="M40.24,8.03l-.67-.17.36-.59a1,1,0,0,0-.15-1.22L36.95,3.22a1.012,1.012,0,0,0-1.22-.15l-.59.36-.17-.67A1,1,0,0,0,34,2H30a1,1,0,0,0-.97.76l-.17.67-.59-.36a1.012,1.012,0,0,0-1.22.15L24.22,6.05a1,1,0,0,0-.15,1.22l.36.59-.67.17A1,1,0,0,0,23,9v4a1,1,0,0,0,.76.97l.67.17-.36.59a1,1,0,0,0,.15,1.22l2.83,2.83a1,1,0,0,0,1.22.15l.59-.36.17.67A1,1,0,0,0,30,20h4a1,1,0,0,0,.97-.76l.17-.67.59.36a1,1,0,0,0,1.22-.15l2.83-2.83a1,1,0,0,0,.15-1.22l-.36-.59.67-.17A1,1,0,0,0,41,13V9A1,1,0,0,0,40.24,8.03ZM39,12.22l-1.22.3a1.007,1.007,0,0,0-.68.59,1.019,1.019,0,0,0,.06.9l.65,1.08-1.72,1.72-1.08-.64a.989.989,0,0,0-.9-.07,1.007,1.007,0,0,0-.59.68L33.22,18H30.78l-.3-1.22a1.007,1.007,0,0,0-.59-.68.989.989,0,0,0-.9.07l-1.08.64-1.72-1.72.65-1.08a1.019,1.019,0,0,0,.06-.9,1.007,1.007,0,0,0-.68-.59L25,12.22V9.78l1.22-.3a1.007,1.007,0,0,0,.68-.59,1.019,1.019,0,0,0-.06-.9l-.65-1.08,1.72-1.72,1.08.64a.987.987,0,0,0,.9.07,1.007,1.007,0,0,0,.59-.68L30.78,4h2.44l.3,1.22a1.007,1.007,0,0,0,.59.68.989.989,0,0,0,.9-.07l1.08-.64,1.72,1.72-.65,1.08a1.019,1.019,0,0,0-.06.9,1.007,1.007,0,0,0,.68.59l1.22.3Z" data-original="#000000" class="active-path" data-old_color="#000000" fill="#FFB229"/></g></g> </svg>
